<?xml version="1.0" encoding="UTF-8"?>
<svg width="416px" height="386px" viewBox="0 0 416 386" version="1.1" xmlns="http://www.w3.org/2000/svg" xmlns:xlink="http://www.w3.org/1999/xlink">
    <!-- Generator: Sketch 52.5 (67469) - http://www.bohemiancoding.com/sketch -->
    <title>template/Group 15 Copy 2</title>
    <desc>Created with Sketch.</desc>
    <defs>
        <polygon id="path-1" points="0 4.53432378 11.1825325 168.647394 21.8850009 168.647394 36.4669085 0"></polygon>
        <polygon id="path-3" points="36.9811417 0.419190472 23.2657526 167.34276 12.8615912 167.34276 0.0626075177 2.43695453"></polygon>
        <path d="M17.9803254,80.1886711 C16.5869841,78.0118029 15.5396966,75.5748554 14.924069,72.945705 L11.8670089,59.8899699 C11.3476921,57.6721323 11.1641785,55.4541062 11.2833726,53.2892248 C5.51316391,49.0519904 1.76673593,42.2199375 1.7642916,34.5121781 C1.76378496,32.9145927 1.92766022,31.3211947 2.25332861,29.7571553 L7.15406094,6.22113233 C29.5953715,-1.01397291 73.344593,-1.01397291 90.8501351,4.64142176 C99.240257,7.35196055 103.47222,17.2671142 103.546024,34.3868829 C103.594592,45.6527028 95.636037,55.0847246 85.0169579,57.2900503 C84.9221785,58.0990917 84.784947,58.9032221 84.6056358,59.699094 L81.6641584,72.7548292 C81.13823,75.0891599 80.2722941,77.2749324 79.1256343,79.2647337 C79.3269531,80.1677221 79.4764596,81.0915565 79.5707496,82.0331563 C80.1753672,88.0709918 81.8121974,94.1280139 84.4812401,100.204223 C93.1367333,119.908883 12.2721739,112.813095 14.9107534,105.716536 C16.0720065,102.593303 16.9825106,95.0452335 17.6422659,83.0723291 C17.6962273,82.0930652 17.8101404,81.130685 17.9803254,80.1886711 Z" id="path-5"></path>
        <path d="M35.5306583,20.7751121 C35.6371466,20.7585329 35.7462744,20.7499284 35.8574119,20.7499284 C37.0210932,20.7499284 37.9644433,21.6932784 37.9644433,22.8569597 L37.9644433,26.8005642 C37.9644433,27.8589272 37.1841209,28.7350362 36.1674166,28.8849505 L36.5460978,33.707886 C37.3133277,43.4794283 30.0138902,52.0227912 20.2423478,52.790021 C19.7801726,52.8263095 19.316753,52.8444747 18.8531553,52.8444747 C8.81907186,52.8444747 0.684840063,44.7102429 0.684840063,34.6761594 C0.684840063,34.3432449 0.693990506,34.0103933 0.712281025,33.6779816 L1.64248049,16.7725463 C2.13360156,7.84691703 9.25035842,0.714060225 18.1748551,0.202771165 C26.8822206,-0.296078337 34.3907998,6.25772122 35.0734939,14.9526044 L35.5306583,20.7751121 Z" id="path-7"></path>
        <path d="M77.0874609,1.70299395 C74.6571908,4.32121613 72.1345978,17.6112217 69.519682,41.5730107 L0.541731913,48.1348883 C57.1018968,59.0600844 87.6752456,62.5675 92.2617783,58.657135 C99.1415773,52.7915874 92.7226456,18.4388011 90.6492244,10.6565782 C88.5758033,2.87435531 80.7328662,-2.22433932 77.0874609,1.70299395 Z" id="path-9"></path>
        <path d="M6.34306214,18.5484868 C2.50091811,31.3659274 0.77369137,49.777717 4.50545089,65.1300994 C6.99329057,75.3650211 36.3819467,72.5316167 92.6714194,56.6298863 L29.7319498,46.0885504 C27.0227272,18.5754636 24.516125,4.33425452 22.2121432,3.36492333 C18.7561706,1.91092656 10.1852062,5.73104613 6.34306214,18.5484868 Z" id="path-11"></path>
    </defs>
    <g id="Page-1" stroke="none" stroke-width="1" fill="none" fill-rule="evenodd">
        <g id="Desktop-HD-Copy-25" transform="translate(-773.000000, -20.000000)">
            <g id="Group-15-Copy-2" transform="translate(719.000000, -71.000000)">
                <g id="Group-Copy">
                    <path d="M445.9439,216.537977 C380.42791,79.864433 297.468871,159.434103 224.80058,102.656423 C131.960606,30.1180661 29.3139282,142.981849 59.7014286,210.943746 C90.0889291,278.905644 110.14641,206.003334 177.331331,326.300832 C269.603178,491.517553 511.459889,353.21152 445.9439,216.537977 Z" id="Mask" fill="#E0DFEE" opacity="0.451915923" transform="translate(255.654763, 240.454116) scale(-1, 1) rotate(-30.000000) translate(-255.654763, -240.454116) "></path>
                    <g id="Group-5-Copy-4" transform="translate(183.412920, 128.405404)">
                        <g id="Group-13">
                            <g id="Rectangle" transform="translate(30.625345, 160.969141)">
                                <mask id="mask-2" fill="white">
                                    <use xlink:href="#path-1"></use>
                                </mask>
                                <use id="Mask" fill="#4D479F" xlink:href="#path-1"></use>
                                <polygon fill="#7B75D0" opacity="0.267438616" mask="url(#mask-2)" points="-6.25007048 4.40149996 29.9161088 5.03028566 29.9161088 163.587293 1.81099948 162.418286"></polygon>
                            </g>
                            <g id="Path-29" transform="translate(59.938069, 162.436308)">
                                <mask id="mask-4" fill="white">
                                    <use xlink:href="#path-3"></use>
                                </mask>
                                <use id="Mask" fill="#4D479F" xlink:href="#path-3"></use>
                                <polygon fill="#3B3493" opacity="0.461472284" mask="url(#mask-4)" points="28.0039359 5.77153711 20.6745482 160.217685 24.3392421 159.141289 37.7238941 0.419190472"></polygon>
                            </g>
                            <g id="Group-9-Copy-3" transform="translate(0.062116, 0.000000)">
                                <g id="Path-8-Copy" transform="translate(13.267195, 58.526712)">
                                    <g id="Path-18">
                                        <mask id="mask-6" fill="white">
                                            <use xlink:href="#path-5"></use>
                                        </mask>
                                        <use id="Combined-Shape" fill="#3C3699" xlink:href="#path-5"></use>
                                        <path d="M21.6234082,70.2755248 C24.6760592,72.0647524 26.2023847,77.3188335 26.2023847,86.0377682 C26.2023847,94.7567028 27.6293559,103.578447 30.4832983,112.503001 L9.0585014,106.843929 C14.7540499,94.9620041 17.2172419,88.026617 16.4480772,86.0377682 C15.6789125,84.0489193 14.3155848,79.107243 12.3580939,71.2127393 L21.6234082,70.2755248 Z" id="Path-27" fill="#FECF5E" opacity="0.04" mask="url(#mask-6)"></path>
                                    </g>
                                    <path d="M31.1092084,4.93962808 C29.9251086,9.77770153 45.777533,25.7305731 49.2298901,25.7305731 C52.6822472,25.7305731 66.9057004,8.79080963 66.6686629,4.32335043 C66.5106378,1.3450443 60.4376274,0.143545078 48.4496315,0.718852766 C37.6787493,0.307320681 31.8986082,1.71424579 31.1092084,4.93962808 Z" id="Path-8" fill="#FFFFFF"></path>
                                </g>
                                <g id="Group-14" transform="translate(40.625458, 0.000000)">
                                    <path d="M22.4382737,40.5897722 L22.4382737,40.5897722 C28.3298646,40.5897722 33.3954532,44.7643247 34.5212485,50.547354 L35.5496183,55.829909 C36.990429,63.2311215 32.1585687,70.3989975 24.7573562,71.8398082 C24.0828887,71.9711083 23.3994712,72.0513029 22.7129296,72.0797084 C22.4625817,72.0900665 22.2456838,72.0952455 22.0622358,72.0952455 C22.0622358,72.0952455 22.0622358,72.0952455 22.0622358,72.0952455 L22.0622358,72.0952455 C14.5814436,72.0952455 8.51706329,66.0308652 8.51706329,58.550073 C8.51706329,57.5294072 8.63242706,56.5120116 8.86095788,55.5172592 L10.020204,50.476228 C11.3508136,44.6901418 16.5011603,40.5897722 22.4382737,40.5897722 Z" id="Rectangle-Copy-5" fill="#E0DFEE"></path>
                                    <path d="M8.8205145,55.3596175 C18.8699826,64.317645 27.566645,64.1119107 34.9105018,54.7424147 L32.3015858,54.0755709 L8.8205145,54.0755709 L8.8205145,55.3596175 Z" id="Path-9-Copy" fill="#3B3493" opacity="0.186662946"></path>
                                    <g id="Rectangle" transform="translate(3.125035, 6.916643)">
                                        <mask id="mask-8" fill="white">
                                            <use xlink:href="#path-7"></use>
                                        </mask>
                                        <use id="Combined-Shape" fill="#E0DFEE" xlink:href="#path-7"></use>
                                        <path d="M22.0441061,2.11792165 L19.1475555,38.3559282 L16.9416867,51.610069 L6.86663907,45.8921204 C2.20749471,23.1984953 -0.122077465,11.6420875 -0.122077465,11.222897 C-0.122077465,10.8037065 4.77119397,7.76871474 14.5577368,2.11792165 L22.0441061,2.11792165 Z" id="Path-28" fill="#FFFFFF" opacity="0.238769531" mask="url(#mask-8)"></path>
                                    </g>
                                    <path d="M4.39965269,31.4425346 C6.33954254,39.9926337 8.17130691,44.8847261 9.89494579,46.1188117 C12.4804041,47.9699402 11.2950361,42.8185683 15.6895507,41.7693142 C20.0840653,40.72006 25.6645583,40.8229865 28.8300087,41.7693142 C31.995459,42.7156418 30.4361225,50.7987785 35.0793453,46.1188117 C38.1748273,42.9988339 39.4135461,37.6215835 38.7955018,29.9870606 C39.150998,28.15583 39.429033,32.6922159 39.6296069,43.5962185 C39.7819692,51.8792457 33.1181407,60.1400606 21.7984575,60.1400606 C10.4787743,60.1400606 4.11417148,52.0267705 4.06412411,45.9833882 C3.99652618,37.8207167 4.10836903,32.9737655 4.39965269,31.4425346 Z" id="Path-3" fill="#DCDAEA"></path>
                                    <path d="M22.0016795,48.7075585 C25.3526436,48.7075585 29.8979724,45.272571 28.0691368,45.272571 C26.2403011,45.272571 17.4246522,45.272571 15.9342223,45.272571 C14.4437924,45.272571 18.6507154,48.7075585 22.0016795,48.7075585 Z" id="Oval" fill="#EEEDF7"></path>
                                    <rect id="Rectangle-Copy-38" fill="#ECEBF4" x="1.87502114" y="28.2953569" width="4.21406267" height="8.15766721" rx="2.10703134"></rect>
                                    <path d="M5.62984869,31.4425346 C8.05232318,26.9267246 5.89968774,21.0259432 7.58647204,16.3450511 C9.27325634,11.6641591 13.4935618,13.377312 17.030334,12.0713601 C20.5671062,10.7654081 24.1619674,10.777037 25.7987456,11.7529607 C27.4355239,12.7288843 30.0331137,16.3450511 33.350126,14.8338776 C36.6671383,13.3227041 36.5091601,22.7554109 38.8525562,30.6299694 C38.6039043,29.1312987 38.9616453,28.300662 39.9257791,28.1380593 C41.3719798,27.8941552 40.773987,32.0332026 41.3430314,30.6299694 C41.5085009,30.2219304 42.3738602,24.4786005 42.7427789,22.8061143 C43.2629577,20.447893 41.533142,16.5310039 41.533142,12.0713601 C41.533142,7.61171621 35.906297,6.37770077 35.906297,3.68889662 C35.906297,1.00009247 24.1178608,-2.57055821 10.4787743,4.60413598 C8.36928972,2.71652709 5.44763192,5.45426252 1.71380088,12.8173423 C1.01529468,16.021499 0.666041583,19.29448 0.666041583,22.6362855 C0.666041583,25.25586 -0.136936504,29.3055737 1.71380088,31.1248925 C2.28254611,31.6839826 2.08583446,28.1380593 3.68792625,28.5148354 C4.75598744,28.7660194 5.40329492,29.7419192 5.62984869,31.4425346 Z" id="Path-2-Copy-2" fill="#3B3493"></path>
                                </g>
                                <path d="" id="Path-10-Copy" stroke="#979797" stroke-width="2.240784"></path>
                                <path d="M27.6258034,74.8516939 C33.117775,99.087006 35.2524125,112.91156 34.029716,116.325356 C32.8070195,119.739152 31.0453796,118.321626 28.7447961,112.072779 L26.9899085,99.0563091 L25.9814957,71.4723871 L25.625289,67.9088565 L27.6258034,74.8516939 Z" id="Path-12-Copy" fill="#322E66" opacity="0.0925641741"></path>
                                <path d="M28.5848376,131.486078 C28.2114169,132.650496 29.5187185,133.509714 32.5067426,134.063732 C36.9887787,134.894758 87.3210768,132.28595 92.8195471,126.578848 C96.4851941,122.774114 96.7925409,121.474575 93.7415878,122.68023 L45.6392012,130.07431 C39.5311712,130.216773 36.3015132,130.288005 35.950227,130.288005 C35.5989409,130.288005 33.143811,130.687363 28.5848376,131.486078 Z" id="Path-13-Copy" fill="#322E66" opacity="0.167061942"></path>
                                <g id="Path-30" transform="translate(26.041960, 63.788968)">
                                    <mask id="mask-10" fill="white">
                                        <use xlink:href="#path-9"></use>
                                    </mask>
                                    <use id="Mask" fill="#3A338E" xlink:href="#path-9"></use>
                                </g>
                                <g id="Path-19" transform="translate(0.000000, 62.878571)">
                                    <mask id="mask-12" fill="white">
                                        <use xlink:href="#path-11"></use>
                                    </mask>
                                    <use id="Mask" fill="#403A98" transform="translate(47.551612, 37.107686) rotate(4.000000) translate(-47.551612, -37.107686) " xlink:href="#path-11"></use>
                                </g>
                            </g>
                            <path d="M60.0006766,171.169443 L67.3050519,171.169443 L65.3327279,209.124656 C65.3327279,210.58426 61.5787553,210.58426 61.5787553,209.124656 L60.0006766,171.169443 Z" id="Rectangle-Copy-56" fill="#464195"></path>
                            <polygon id="Rectangle-Copy-62" fill="#464195" transform="translate(85.838782, 172.982687) rotate(-104.000000) translate(-85.838782, -172.982687) " points="85.1340187 167.78474 86.5404073 167.785164 86.5435457 178.180634 85.1371571 178.18021"></polygon>
                            <polygon id="Rectangle-Copy-63" fill="#464195" transform="translate(39.605183, 171.552123) rotate(-78.000000) translate(-39.605183, -171.552123) " points="38.9033341 166.354674 40.3097503 166.354307 40.3070312 176.749573 38.900615 176.74994"></polygon>
                            <g id="Group-12-Copy-8" transform="translate(41.788948, 332.511078) rotate(7.000000) translate(-41.788948, -332.511078) translate(26.388948, 315.361078)">
                                <path d="M19.6592246,4.40149996 L20.7207514,4.40149996 C24.3046676,4.40149996 27.4608678,6.76093416 28.4751382,10.1983331 L28.8438605,11.4479534 C29.7132655,14.3943983 29.1789571,17.5769951 27.3950129,20.0779839 C23.5042466,25.532618 20.641753,28.4288123 18.8075322,28.7665667 C16.5594665,29.1805268 10.4986248,29.1805268 0.625007048,28.7665667 C4.03635281,18.5235747 3.14452713,25.3559369 7.56673412,16.2835642 C8.78330488,13.7877101 9.84564097,11.6473385 10.7537424,9.86244929 L10.7537453,9.86245076 C12.4584996,6.51172633 15.8997643,4.40149996 19.6592246,4.40149996 Z" id="Rectangle-Copy-58" fill="#3B3493"></path>
                                <path d="M16.4338074,0.668012154 L16.4338074,0.668012154 C18.4876462,0.721257534 20.1619154,2.33200332 20.2945229,4.38224818 L20.8470628,12.9250705 C21.0636187,16.2732435 18.5249415,19.1630273 15.1767685,19.3795833 C15.0426886,19.3882554 14.9083579,19.3924771 14.773998,19.3922413 L14.773998,19.3922413 C11.9438201,19.3872745 9.65353394,17.0889356 9.65850071,14.2587577 C9.65920411,13.8579434 9.70692935,13.4585955 9.80069776,13.0689032 L11.9585441,4.10110559 C12.4534797,2.0442018 14.3189059,0.613183735 16.4338074,0.668012154 Z" id="Rectangle-Copy-59" fill="#4D479F" transform="translate(15.259221, 10.029370) rotate(-174.000000) translate(-15.259221, -10.029370) "></path>
                                <g id="Group-11-Copy-3" transform="translate(13.478429, 18.074996) rotate(5.000000) translate(-13.478429, -18.074996) translate(7.528429, 15.974996)" fill="#FECF5E">
                                    <path d="M0.627708869,0.0171057069 C2.32596672,0.464264131 3.75409615,0.687843344 4.91209716,0.687843344 C6.11032731,0.687843344 8.12647596,0.515493944 10.9605431,0.170795144 L10.9605455,0.170815151 C11.1667298,0.145737605 11.3542044,0.292553565 11.379282,0.498737777 C11.3811145,0.513804034 11.3820332,0.528967404 11.3820332,0.544144691 L11.3820332,0.544144691 C11.3820332,0.787638872 11.2013367,0.993316251 10.9598697,1.02467121 C8.16095139,1.38811058 6.1706227,1.5698331 4.98888292,1.5698331 C3.83517353,1.5698331 2.27681253,1.33613173 0.313799925,0.868728996 L0.313800974,0.868724592 C0.0944814866,0.816503568 -0.0409785827,0.596376491 0.011242441,0.377057004 C0.0151540974,0.360628707 0.0200814247,0.344458974 0.0259960173,0.328641022 L0.0259960173,0.328641022 C0.116832799,0.0857076713 0.376899898,-0.0489457412 0.627711921,0.0170941178 Z" id="Rectangle-Copy-57"></path>
                                    <path d="M0.500626687,1.91074004 C2.23722115,2.56832214 3.60647347,2.89711319 4.60838365,2.89711319 C5.63589918,2.89711319 7.2724982,2.75740685 9.5181807,2.47799418 L9.51817596,2.47795609 C9.69458667,2.45600668 9.85538931,2.58122231 9.87733871,2.75763302 C9.87782817,2.76156682 9.87824491,2.76550932 9.87858872,2.76945851 L9.87858872,2.76945851 C9.89502691,2.95827361 9.76416554,3.12823634 9.57742221,3.16061356 C7.54350799,3.51323796 6.02186497,3.68955595 5.01249114,3.68955595 C4.01303271,3.68955595 2.45307589,3.36789186 0.332620671,2.72456368 L0.3326271,2.72454249 C0.0990990966,2.65369207 -0.0409464862,2.41546003 0.0107251543,2.17695395 L0.0107251543,2.17695395 C0.0537512,1.97835422 0.249627591,1.85223683 0.448227318,1.89526288 C0.466050812,1.89912428 0.483562555,1.90430548 0.50061775,1.91076364 Z" id="Rectangle-Copy-61"></path>
                                </g>
                                <g id="Group-11-Copy-4" transform="translate(13.905215, 15.309783) rotate(5.000000) translate(-13.905215, -15.309783) translate(8.305215, 14.259783)" fill="#FECF5E">
                                    <path d="M0.763272715,0.290513155 C1.46429699,0.458975343 2.36997155,0.543206438 3.4802964,0.543206438 C4.7664053,0.543206438 7.10631922,0.364462838 10.5000382,0.00697563923 L10.5000377,0.00697166887 C10.7330422,-0.0175725327 10.9418267,0.151417919 10.9663709,0.384422408 C10.967926,0.399185103 10.9687051,0.414019244 10.9687051,0.428863616 L10.9687051,0.428863616 C10.9687051,0.699039691 10.7683975,0.927343095 10.5005169,0.962487559 C7.14550814,1.40264642 4.83367118,1.62272585 3.56500608,1.62272585 C2.39961138,1.62272585 1.2875035,1.43765268 0.228682439,1.06750636 L0.228678123,1.06751871 C0.0504405393,1.0052098 -0.0435382189,0.810208333 0.0187706916,0.631970749 C0.0305977377,0.598138924 0.0476709588,0.566377193 0.0693648489,0.537849198 L0.0693648489,0.537849198 C0.231153779,0.325092806 0.503387935,0.228056441 0.763273659,0.290509226 Z" id="Rectangle-Copy-57"></path>
                                </g>
                                <g id="Group-11-Copy-6" transform="translate(15.448684, 11.942539) rotate(5.000000) translate(-15.448684, -11.942539) translate(9.148684, 9.492539)" fill="#FECF5E">
                                    <path d="M0.592188493,0.038081827 C2.05990062,0.709722828 3.49854024,1.04554333 4.90810737,1.04554333 C6.37956084,1.04554333 8.61990641,0.906662467 11.6291441,0.628900744 L11.6291423,0.628881753 C11.8628881,0.607306313 12.0698668,0.779304344 12.0914423,1.01305011 C12.0926411,1.02603754 12.0932414,1.03907326 12.0932414,1.0521159 L12.0932414,1.0521159 C12.0932414,1.32165636 11.8978749,1.55146642 11.6318492,1.59485266 C8.65153786,2.08092376 6.43543808,2.32395397 4.98355158,2.32395397 C3.57544474,2.32395397 2.01972356,1.87831791 0.316388041,0.98704578 L0.316375324,0.987070083 C0.0655094127,0.855804227 -0.0566403191,0.564758455 0.0254036495,0.293772814 L0.0254036495,0.293772814 C0.0914593962,0.0755951811 0.321876077,-0.0477239735 0.54005371,0.0183317732 C0.557860831,0.0237230806 0.575283048,0.0303122314 0.592201161,0.0380541436 Z" id="Rectangle-Copy-57" transform="translate(6.046621, 1.161977) scale(1, -1) translate(-6.046621, -1.161977) "></path>
                                    <path d="M0.324218947,2.88898191 C1.17604627,3.22436112 2.25374015,3.39205072 3.55730058,3.39205072 C4.95106614,3.39205072 7.28484765,3.17306607 10.5586451,2.73509676 L10.5586464,2.73510668 C10.7818681,2.70524404 10.9870335,2.8619925 11.0168961,3.08521416 C11.019294,3.10313808 11.0204969,3.12120166 11.0204969,3.13928526 L11.0204969,3.13928526 C11.0204969,3.40951228 10.8259658,3.64050474 10.5596779,3.68647652 C7.76128624,4.16956732 5.67939871,4.41112334 4.31401166,4.41112334 C2.97547959,4.41112334 1.63038856,4.12395247 0.278738564,3.54961074 L0.278730101,3.54963065 C0.0963515237,3.47213454 -0.0154471492,3.28608072 0.00173963584,3.08866692 L0.00173963584,3.08866692 C0.013076258,2.95845026 0.127827862,2.86207895 0.258044516,2.87341558 C0.280737201,2.8753912 0.303025827,2.8806325 0.324220758,2.88897731 Z" id="Rectangle-Copy-60" transform="translate(5.510248, 3.571157) scale(1, -1) translate(-5.510248, -3.571157) "></path>
                                </g>
                                <path d="M1.03826948,32.630461 C7.87862199,34.0819641 12.9985688,34.0819641 16.3981099,32.630461 C21.4974215,30.4532063 29.8487417,22.8803482 30.7262142,19.9688421 L29.4762396,14.4620713 L28.9592089,16.0549166 C26.2589469,22.792748 22.0719139,27.1036235 16.3981099,28.9875434 L0,28.9875434 L1.03826948,32.630461 Z" id="Path-15" fill="#E0DFEE"></path>
                                <path d="M0,28.7453342 C0.814010772,25.3474996 2.68155671,23.734474 5.60263781,23.9062572 C8.52371892,24.0780404 12.1192806,25.6910661 16.3893227,28.7453342 L16.3893227,32.0082474 L0.832373288,31.2952404 L0,28.7453342 Z" id="Path-17" fill="#E0DFEE"></path>
                            </g>
                            <g id="Group-12-Copy-9" transform="translate(84.548852, 331.848734) scale(-1, 1) rotate(8.000000) translate(-84.548852, -331.848734) translate(69.148852, 314.698734)">
                                <path d="M19.6592246,5.03028566 L20.7207514,5.03028566 C24.3046676,5.03028566 27.4608678,7.38971987 28.4751382,10.8271188 L28.8438605,12.0767392 C29.7132655,15.023184 29.1789571,18.2057808 27.3950129,20.7067696 C23.5042466,26.1614038 20.641753,29.057598 18.8075322,29.3953525 C16.5594665,29.8093125 10.4986248,29.8093125 0.625007048,29.3953525 C4.03635281,19.1523604 3.14452713,25.9847226 7.56673412,16.9123499 C8.78330488,14.4164958 9.84564097,12.2761242 10.7537424,10.491235 L10.7537453,10.4912365 C12.4584996,7.14051204 15.8997643,5.03028566 19.6592246,5.03028566 Z" id="Rectangle-Copy-58" fill="#3B3493"></path>
                                <path d="M16.4721759,0.744340962 L16.4721759,0.744340962 C18.5260146,0.797586341 20.2002839,2.40833213 20.3328914,4.45857699 L20.8854312,13.0013993 C21.1019872,16.3495723 18.56331,19.2393561 15.215137,19.4559121 C15.0810571,19.4645842 14.9467263,19.4688059 14.8123664,19.4685701 L14.8123664,19.4685701 C11.9821885,19.4636033 9.6919024,17.1652644 9.69686917,14.3350865 C9.69757257,13.9342722 9.74529781,13.5349243 9.83906622,13.145232 L11.9969125,4.1774344 C12.4918481,2.12053061 14.3572744,0.689512542 16.4721759,0.744340962 Z" id="Rectangle-Copy-59" fill="#4D479F" transform="translate(15.297589, 10.105699) rotate(-174.000000) translate(-15.297589, -10.105699) "></path>
                                <g id="Group-11-Copy-3" transform="translate(13.472716, 18.133912) rotate(5.000000) translate(-13.472716, -18.133912) translate(7.522716, 16.383912)" fill="#FECF5E">
                                    <path d="M1.51525403,0.0251263375 C3.06545752,0.466937675 4.37009265,0.687843344 5.42915943,0.687843344 C6.52696051,0.687843344 8.37095287,0.516950756 10.9611365,0.175165581 L10.9611325,0.175134976 C11.1649309,0.14824295 11.3519425,0.291653933 11.3788345,0.495452371 C11.3809647,0.511595703 11.3820332,0.527861423 11.3820332,0.544144691 L11.3820332,0.544144691 C11.3820332,0.788372619 11.2021964,0.99531935 10.9603564,1.02938817 C8.40260136,1.38967363 6.58242036,1.5698331 5.49980865,1.5698331 C4.44415231,1.5698331 3.02027641,1.33870106 1.22818095,0.876436985 L1.22818728,0.876412449 C1.00174045,0.818001367 0.865520559,0.587078402 0.923931641,0.36063157 C0.926713796,0.349845773 0.929920458,0.339173956 0.933544144,0.328641022 L0.933544144,0.328641022 C1.01599747,0.088974772 1.27150618,-0.0443390994 1.51525318,0.0251293215 Z" id="Rectangle-Copy-57"></path>
                                    <path d="M1.13248266,1.49908281 C2.69514723,2.14844243 3.92846033,2.47312224 4.83242195,2.47312224 C5.76081388,2.47312224 7.23686347,2.33476723 9.26057074,2.0580572 L9.26057344,2.05807696 C9.43300899,2.03449912 9.59190924,2.15517213 9.61548708,2.32760768 C9.61629843,2.33354147 9.61694046,2.33949718 9.61741239,2.34546756 L9.61741239,2.34546756 C9.6324394,2.5355763 9.50197849,2.70652931 9.31464414,2.74220819 C7.4826825,3.09111139 6.11090947,3.265565 5.19932428,3.265565 C4.29709926,3.265565 2.89181276,2.947588 0.983464771,2.31163398 L0.983471304,2.31161437 C0.749905617,2.23377897 0.610542415,1.99452771 0.658058411,1.752963 L0.658058411,1.752963 C0.695108185,1.5646071 0.877835581,1.44194926 1.06619147,1.47899903 C1.08890311,1.48346643 1.11111171,1.49019132 1.13248651,1.49907354 Z" id="Rectangle-Copy-61"></path>
                                </g>
                                <g id="Group-11-Copy-4" transform="translate(14.417302, 15.497669) rotate(5.000000) translate(-14.417302, -15.497669) translate(8.817302, 14.447669)" fill="#FECF5E">
                                    <path d="M0.763272715,0.290513155 C1.46429699,0.458975343 2.36997155,0.543206438 3.4802964,0.543206438 C4.7664053,0.543206438 7.10631922,0.364462838 10.5000382,0.00697563923 L10.5000377,0.00697166887 C10.7330422,-0.0175725327 10.9418267,0.151417919 10.9663709,0.384422408 C10.967926,0.399185103 10.9687051,0.414019244 10.9687051,0.428863616 L10.9687051,0.428863616 C10.9687051,0.699039691 10.7683975,0.927343095 10.5005169,0.962487559 C7.14550814,1.40264642 4.83367118,1.62272585 3.56500608,1.62272585 C2.39961138,1.62272585 1.2875035,1.43765268 0.228682439,1.06750636 L0.228678123,1.06751871 C0.0504405393,1.0052098 -0.0435382189,0.810208333 0.0187706916,0.631970749 C0.0305977377,0.598138924 0.0476709588,0.566377193 0.0693648489,0.537849198 L0.0693648489,0.537849198 C0.231153779,0.325092806 0.503387935,0.228056441 0.763273659,0.290509226 Z" id="Rectangle-Copy-57"></path>
                                </g>
                                <g id="Group-11-Copy-6" transform="translate(15.458197, 11.723330) rotate(5.000000) translate(-15.458197, -11.723330) translate(9.158197, 9.273330)" fill="#FECF5E">
                                    <path d="M0.592188493,0.038081827 C2.05990062,0.709722828 3.49854024,1.04554333 4.90810737,1.04554333 C6.37956084,1.04554333 8.61990641,0.906662467 11.6291441,0.628900744 L11.6291423,0.628881753 C11.8628881,0.607306313 12.0698668,0.779304344 12.0914423,1.01305011 C12.0926411,1.02603754 12.0932414,1.03907326 12.0932414,1.0521159 L12.0932414,1.0521159 C12.0932414,1.32165636 11.8978749,1.55146642 11.6318492,1.59485266 C8.65153786,2.08092376 6.43543808,2.32395397 4.98355158,2.32395397 C3.57544474,2.32395397 2.01972356,1.87831791 0.316388041,0.98704578 L0.316375324,0.987070083 C0.0655094127,0.855804227 -0.0566403191,0.564758455 0.0254036495,0.293772814 L0.0254036495,0.293772814 C0.0914593962,0.0755951811 0.321876077,-0.0477239735 0.54005371,0.0183317732 C0.557860831,0.0237230806 0.575283048,0.0303122314 0.592201161,0.0380541436 Z" id="Rectangle-Copy-57" transform="translate(6.046621, 1.161977) scale(1, -1) translate(-6.046621, -1.161977) "></path>
                                    <path d="M0.324218947,2.88898191 C1.17604627,3.22436112 2.25374015,3.39205072 3.55730058,3.39205072 C4.95106614,3.39205072 7.28484765,3.17306607 10.5586451,2.73509676 L10.5586464,2.73510668 C10.7818681,2.70524404 10.9870335,2.8619925 11.0168961,3.08521416 C11.019294,3.10313808 11.0204969,3.12120166 11.0204969,3.13928526 L11.0204969,3.13928526 C11.0204969,3.40951228 10.8259658,3.64050474 10.5596779,3.68647652 C7.76128624,4.16956732 5.67939871,4.41112334 4.31401166,4.41112334 C2.97547959,4.41112334 1.63038856,4.12395247 0.278738564,3.54961074 L0.278730101,3.54963065 C0.0963515237,3.47213454 -0.0154471492,3.28608072 0.00173963584,3.08866692 L0.00173963584,3.08866692 C0.013076258,2.95845026 0.127827862,2.86207895 0.258044516,2.87341558 C0.280737201,2.8753912 0.303025827,2.8806325 0.324220758,2.88897731 Z" id="Rectangle-Copy-60" transform="translate(5.510248, 3.571157) scale(1, -1) translate(-5.510248, -3.571157) "></path>
                                </g>
                                <path d="M1.03826948,32.630461 C7.87862199,34.0819641 12.9985688,34.0819641 16.3981099,32.630461 C21.4974215,30.4532063 29.8487417,22.8803482 30.7262142,19.9688421 L29.4762396,14.4620713 L28.9592089,16.0549166 C26.2589469,22.792748 22.0719139,27.1036235 16.3981099,28.9875434 L0,28.9875434 L1.03826948,32.630461 Z" id="Path-15" fill="#E0DFEE"></path>
                                <path d="M0,28.7453342 C0.814010772,25.3474996 2.68155671,23.734474 5.60263781,23.9062572 C8.52371892,24.0780404 12.1192806,25.6910661 16.3893227,28.7453342 L16.3893227,32.0082474 L0.832373288,31.2952404 L0,28.7453342 Z" id="Path-17" fill="#E0DFEE"></path>
                            </g>
                            <path d="" id="Path-16-Copy" stroke="#979797" stroke-width="2.240784"></path>
                        </g>
                    </g>
                </g>
                <g id="Group-3" transform="translate(97.427095, 198.699868)" fill="#FECF5E" opacity="0.49500093">
                    <path d="M9.00121064,0.481469915 L27.8481913,0.483518922 L27.850054,17.6525832 L9.00307337,17.6505342 C9.24876664,14.525033 9.24814573,8.80201156 9.00121064,0.481469915 Z" id="Rectangle" transform="translate(18.425632, 9.067027) rotate(3.000000) translate(-18.425632, -9.067027) "></path>
                    <path d="M33.9099029,0 L53.2869903,0 L53.2869903,16.9676291 L33.9099029,16.9676291 C34.1628554,13.8787713 34.1628554,8.22289491 33.9099029,0 Z" id="Rectangle-Copy"></path>
                    <path d="M58.1312621,0 L77.5083495,0 L77.5083495,16.9676291 L58.1312621,16.9676291 C58.3842146,13.8787713 58.3842146,8.22289491 58.1312621,0 Z" id="Rectangle-Copy-2"></path>
                    <path d="M44.8095146,21.8155232 L64.1866019,21.8155232 L64.1866019,38.7831523 L44.8095146,38.7831523 C45.062467,35.6942945 45.062467,30.0384181 44.8095146,21.8155232 Z" id="Rectangle-Copy-4"></path>
                    <path d="M4.84427184,46.0549934 L24.2213592,46.0549934 L24.2213592,63.0226225 L4.84427184,63.0226225 C5.09722433,59.9337647 5.09722433,54.2778883 4.84427184,46.0549934 Z" id="Rectangle-Copy-6"></path>
                    <path d="M29.0656311,48.4789404 L48.4427184,48.4789404 L48.4427184,65.4465695 L29.0656311,65.4465695 C29.3185836,62.3577117 29.3185836,56.7018353 29.0656311,48.4789404 Z" id="Rectangle-Copy-7"></path>
                    <path d="M0,69.0824901 L19.3770874,69.0824901 L19.3770874,86.0501192 L0,86.0501192 C0.252952486,82.9612614 0.252952486,77.305385 0,69.0824901 Z" id="Rectangle-Copy-24"></path>
                    <path d="M29.0656311,70.2944636 L48.4427184,70.2944636 L48.4427184,87.2620927 L29.0656311,87.2620927 C29.3185836,84.1732349 29.3185836,78.5173585 29.0656311,70.2944636 Z" id="Rectangle-Copy-25"></path>
                    <path d="M58.1312621,67.8705166 L77.5083495,67.8705166 L77.5083495,84.8381457 L58.1312621,84.8381457 C58.3842146,81.7492878 58.3842146,76.0934115 58.1312621,67.8705166 Z" id="Rectangle-Copy-26"></path>
                    <path d="M53.261674,44.8029805 L72.1085593,44.8036646 L72.1091812,61.9728156 L53.262296,61.9721315 C53.5082139,58.8465967 53.5080066,53.1235464 53.261674,44.8029805 Z" id="Rectangle-Copy-8" transform="translate(62.685428, 53.387898) rotate(1.000000) translate(-62.685428, -53.387898) "></path>
                    <path d="M19.4226499,22.9591627 L38.269714,22.9564346 L38.2672339,40.125423 L19.4201698,40.1281511 C19.6666548,37.0026014 19.6674815,31.2796052 19.4226499,22.9591627 Z" id="Rectangle-Copy-3" transform="translate(28.844942, 31.542293) rotate(-4.000000) translate(-28.844942, -31.542293) "></path>
                </g>
                <g id="Group-2" transform="translate(317.841464, 179.308291)">
                    <rect id="Rectangle" fill="#FFFFFF" x="8.25602706" y="0" width="27.5200902" height="35.9602603"></rect>
                    <rect id="Rectangle" fill="#F1F1F8" x="11.0080361" y="2.76617387" width="22.0160721" height="9.68160853"></rect>
                    <rect id="Rectangle-Copy-21" fill="#F1F1F8" x="11.0080361" y="15.2139563" width="22.0160721" height="9.68160853"></rect>
                    <rect id="Rectangle-Copy-9" fill="#FFFFFF" x="53.6641759" y="0" width="27.5200902" height="35.9602603"></rect>
                    <rect id="Rectangle-Copy-12" fill="#F1F1F8" x="56.4161849" y="2.76617387" width="8.25602706" height="6.91543467"></rect>
                    <rect id="Rectangle-Copy-15" fill="#F1F1F8" x="56.4161849" y="12.4477824" width="8.25602706" height="6.91543467"></rect>
                    <rect id="Rectangle-Copy-16" fill="#F1F1F8" x="56.4161849" y="22.1293909" width="8.25602706" height="6.91543467"></rect>
                    <rect id="Rectangle-Copy-11" fill="#FFFFFF" x="59.1681939" y="56.7065643" width="27.5200902" height="35.9602603"></rect>
                    <rect id="Rectangle-Copy-13" fill="#FFFFFF" x="1.37600451" y="45.6418688" width="42.6561398" height="29.0448256"></rect>
                    <rect id="Rectangle-Copy-17" fill="#F1F1F8" x="6.88002255" y="49.7911296" width="12.3840406" height="9.68160853"></rect>
                    <rect id="Rectangle-Copy-19" fill="#F1F1F8" x="6.88002255" y="60.8558251" width="12.3840406" height="9.68160853"></rect>
                    <rect id="Rectangle-Copy-18" fill="#F1F1F8" x="26.1440857" y="49.7911296" width="12.3840406" height="9.68160853"></rect>
                    <rect id="Rectangle-Copy-20" fill="#F1F1F8" x="26.1440857" y="60.8558251" width="12.3840406" height="9.68160853"></rect>
                    <rect id="Rectangle-Copy-14" fill="#FFFFFF" x="0" y="84.3683029" width="42.6561398" height="29.0448256"></rect>
                    <rect id="Rectangle-Copy-16" fill="#F1F1F8" x="30.2720992" y="87.1344768" width="8.25602706" height="6.91543467"></rect>
                    <rect id="Rectangle-Copy-22" fill="#F1F1F8" x="30.2720992" y="96.8160853" width="8.25602706" height="12.4477824"></rect>
                    <rect id="Rectangle-Copy-23" stroke="#F1F1F8" stroke-width="1.960686" x="3.73235202" y="88.1148198" width="22.8073952" height="21.5517919"></rect>
                    <path d="M37.840124,18.1327559 L52.2881714,17.9801301" id="Line" stroke="#C3C1E1" stroke-width="1.960686" stroke-linecap="square"></path>
                    <path d="" id="Path-20" stroke="#979797" stroke-width="1.960686"></path>
                    <polyline id="Path-21" stroke="#C3C1E1" stroke-width="1.960686" points="81.184266 17.9801301 95.5991524 17.9801301 95.5991524 77.2624237 86.7509204 77.2624237"></polyline>
                    <polyline id="Path-22" stroke="#C3C1E1" stroke-width="1.960686" points="56.90034 77.1124992 49.3905972 77.1124992 49.3905972 55.3234773 44.0321443 55.3234773"></polyline>
                    <polyline id="Path-23" stroke="#C3C1E1" stroke-width="1.960686" points="44.0321443 99.7929639 49.3905972 99.7929639 49.3905972 77.4528683"></polyline>
                    <path d="M20.6400676,95.4329984 L11.0080361,91.2837376" id="Path-24" stroke="#E1E1E1" stroke-width="1.960686" opacity="0.32156808"></path>
                    <path d="M20.6400676,95.4329984 L11.0080361,91.2837376" id="Path-24-Copy" stroke="#E1E1E1" stroke-width="1.960686" opacity="0.32156808" transform="translate(15.824052, 93.358368) scale(-1, 1) translate(-15.824052, -93.358368) "></path>
                    <path d="M20.6400676,105.114607 L11.0080361,100.965346" id="Path-24" stroke="#E1E1E1" stroke-width="1.960686" opacity="0.32156808"></path>
                    <path d="M20.6400676,105.114607 L11.0080361,100.965346" id="Path-24-Copy" stroke="#E1E1E1" stroke-width="1.960686" opacity="0.32156808" transform="translate(15.824052, 103.039977) scale(-1, 1) translate(-15.824052, -103.039977) "></path>
                    <path d="M78.432257,77.4528683 L68.8002255,73.3036075" id="Path-24" stroke="#E1E1E1" stroke-width="1.960686" opacity="0.32156808"></path>
                    <path d="M78.432257,77.4528683 L68.8002255,73.3036075" id="Path-24-Copy" stroke="#E1E1E1" stroke-width="1.960686" opacity="0.32156808" transform="translate(73.616241, 75.378238) scale(-1, 1) translate(-73.616241, -75.378238) "></path>
                    <path d="M27.5200902,31.8109995 L17.8880586,27.6617387" id="Path-24" stroke="#E1E1E1" stroke-width="1.960686" opacity="0.32156808"></path>
                    <path d="M27.5200902,31.8109995 L17.8880586,27.6617387" id="Path-24-Copy" stroke="#E1E1E1" stroke-width="1.960686" opacity="0.32156808" transform="translate(22.704074, 29.736369) scale(-1, 1) translate(-22.704074, -29.736369) "></path>
                </g>
            </g>
        </g>
    </g>
</svg>